<?xml version="1.0" encoding="utf-8"?>
<!-- Generator: Adobe Illustrator 25.2.0, SVG Export Plug-In . SVG Version: 6.00 Build 0)  -->
<svg version="1.1" id="Layer_1" xmlns="http://www.w3.org/2000/svg" xmlns:xlink="http://www.w3.org/1999/xlink" x="0px" y="0px"
	 viewBox="0 0 800 800" style="enable-background:new 0 0 800 800;" xml:space="preserve">
<style type="text/css">
	.st0{fill:#AB9C59;}
	.st1{fill:#FFFFFF;}
</style>
<rect x="0" y="0" width="800" height="800"/>
<g>
	<g>
		<g>
			<g>
				<path class="st1" d="M520.79,328.07c-46.5-3.91-60.2-11.26-60.2-11.26c-99.37-31.81-171.82,11.26-171.82,11.26
					s-70.48-2.93-99.37,24.48c0,0,9.3,21.05,0,31.81c0,0,5.39,6.86,35.25,7.84c0,0-20.07-45.04,23.99-52.38
					c0,0,27.9-1.47,33.28,21.53c5.19,22.16-6.43,30.26-7.3,30.83c2.69-0.39,108.71-16.04,153.17-8.8c0,0-3.79-44.19,27.94-47.84
					c0,0,42.4-2.91,35.87,42.78h10.76v-11.42C526.83,344.71,520.79,328.07,520.79,328.07z M398.11,369.98
					c-3.54-0.33-7.09-0.64-10.65-0.86l-5.32-0.33l-5.35-0.19c-7.12-0.21-14.24-0.27-21.36-0.01c-7.14,0.16-14.24,0.72-21.43,1.17
					c7.01-1.54,14.12-2.71,21.31-3.26c7.17-0.68,14.38-0.75,21.57-0.56c7.2,0.21,14.38,0.9,21.49,1.98
					c7.1,1.1,14.18,2.56,20.98,4.88C412.3,371.56,405.21,370.68,398.11,369.98z M403.06,328.11c-2.81,0.78-4.92,2.84-7.91,3.15
					c-0.96,0.09-2,0-2.97,0h-89.72c-0.24,0-0.92-0.12-1.18-0.01c1.57-0.9,71.16-39.52,152.94-7.09
					C437.53,323.99,419.23,323.62,403.06,328.11z"/>
			</g>
			<g>
				<path class="st1" d="M461.13,338.02c-15.77,0-28.55,12.8-28.55,28.55c0,15.78,12.78,28.55,28.55,28.55s28.55-12.77,28.55-28.55
					C489.69,350.82,476.9,338.02,461.13,338.02z M472.9,385.51c-1.11,0.83-2.14,1.81-3.46,2.39c-2.48,1.41-5.41,2.08-8.31,2.04
					c-2.88-0.04-5.73-0.82-8.21-2.14c-2.49-1.3-4.72-3.1-6.28-5.36c2.44,1.23,4.84,2.25,7.26,3.03c2.41,0.76,4.86,1.18,7.29,1.21
					c2.43,0.01,4.88-0.28,7.25-1.11c1.23-0.31,2.36-0.91,3.59-1.38c1.21-0.51,2.3-1.22,3.62-1.74
					C474.81,383.5,473.93,384.57,472.9,385.51z"/>
			</g>
			<g>
				<path class="st1" d="M250.89,342.67c-14.97,0-27.09,12.13-27.09,27.09c0,14.94,12.13,27.07,27.09,27.07
					c14.94,0,27.07-12.13,27.07-27.07C277.96,354.8,265.83,342.67,250.89,342.67z M262.36,390.4c-1.11,0.83-2.16,1.81-3.47,2.39
					c-2.47,1.42-5.4,2.09-8.29,2.04c-2.91-0.03-5.75-0.82-8.23-2.13c-2.48-1.31-4.72-3.11-6.28-5.37c2.45,1.23,4.85,2.25,7.26,3.03
					c2.43,0.78,4.86,1.18,7.3,1.21c2.43,0.03,4.88-0.27,7.24-1.1c1.25-0.31,2.37-0.92,3.59-1.39c1.19-0.51,2.32-1.22,3.6-1.74
					C264.26,388.39,263.37,389.48,262.36,390.4z"/>
			</g>
		</g>
		<g>
			<path class="st1" d="M606.64,339.09h-35.63c-2.19,0-3.97-1.78-3.97-3.97V334c0-2.19,1.78-3.97,3.97-3.97h35.63
				c2.19,0,3.97,1.78,3.97,3.97v1.12C610.61,337.31,608.83,339.09,606.64,339.09z"/>
		</g>
		<g>
			<path class="st1" d="M555.98,339.09h-8.89c-2.19,0-3.97-1.78-3.97-3.97V334c0-2.19,1.78-3.97,3.97-3.97h8.89
				c2.19,0,3.97,1.78,3.97,3.97v1.12C559.95,337.31,558.17,339.09,555.98,339.09z"/>
		</g>
		<g>
			<path class="st1" d="M543.55,354.26h-8.89c-2.19,0-3.97-1.78-3.97-3.97v-1.12c0-2.19,1.78-3.97,3.97-3.97h8.89
				c2.19,0,3.97,1.78,3.97,3.97v1.12C547.52,352.48,545.74,354.26,543.55,354.26z"/>
		</g>
		<g>
			<path class="st1" d="M532.6,371.11h-8.89c-2.19,0-3.97-1.78-3.97-3.97v-1.12c0-2.19,1.78-3.97,3.97-3.97h8.89
				c2.19,0,3.97,1.78,3.97,3.97v1.12C536.57,369.33,534.8,371.11,532.6,371.11z"/>
		</g>
		<g>
			<path class="st1" d="M519.88,384.37h-8.89c-2.19,0-3.97-1.78-3.97-3.97v-1.12c0-2.19,1.78-3.97,3.97-3.97h8.89
				c2.19,0,3.97,1.78,3.97,3.97v1.12C523.85,382.59,522.07,384.37,519.88,384.37z"/>
		</g>
		<g>
			<path class="st1" d="M602.73,353.18h-41.99c-2.19,0-3.97-1.78-3.97-3.97v-1.12c0-2.19,1.78-3.97,3.97-3.97h41.99
				c2.19,0,3.97,1.78,3.97,3.97v1.12C606.7,351.4,604.92,353.18,602.73,353.18z"/>
		</g>
		<g>
			<path class="st1" d="M601.26,369.44h-51.29c-2.19,0-3.97-1.78-3.97-3.97v-1.12c0-2.19,1.78-3.97,3.97-3.97h51.29
				c2.19,0,3.97,1.78,3.97,3.97v1.12C605.23,367.66,603.45,369.44,601.26,369.44z"/>
		</g>
		<g>
			<path class="st1" d="M602.73,384.37h-66.96c-2.19,0-3.97-1.78-3.97-3.97v-1.12c0-2.19,1.78-3.97,3.97-3.97h66.96
				c2.19,0,3.97,1.78,3.97,3.97v1.12C606.7,382.59,604.92,384.37,602.73,384.37z"/>
		</g>
	</g>
	<g>
		<g>
			<path class="st1" d="M144.39,459.53c0-20.62,15.83-35.37,37.13-35.37c11.82,0,21.69,4.3,28.14,12.12l-10.16,9.38
				c-4.59-5.28-10.36-8.01-17.2-8.01c-12.8,0-21.89,8.99-21.89,21.89c0,12.9,9.09,21.89,21.89,21.89c6.84,0,12.61-2.74,17.2-8.11
				l10.16,9.38c-6.45,7.92-16.32,12.21-28.24,12.21C160.22,494.9,144.39,480.15,144.39,459.53z"/>
			<path class="st1" d="M283.05,425.32v68.4h-15.83v-28.05h-31.08v28.05h-15.83v-68.4h15.83v26.97h31.08v-26.97H283.05z"/>
			<path class="st1" d="M344.31,479.07h-31.76l-6.06,14.66h-16.22l30.49-68.4h15.64l30.59,68.4h-16.61L344.31,479.07z
				 M339.32,467.05l-10.85-26.19l-10.85,26.19H339.32z"/>
			<path class="st1" d="M417.69,493.73l-13.19-19.06h-0.78h-13.78v19.06H374.1v-68.4h29.61c18.27,0,29.71,9.48,29.71,24.82
				c0,10.26-5.18,17.79-14.07,21.6l15.34,21.99H417.69z M402.83,438.22h-12.9v23.84h12.9c9.67,0,14.56-4.49,14.56-11.92
				C417.39,442.62,412.51,438.22,402.83,438.22z"/>
			<path class="st1" d="M492.14,458.45h14.46v27.75c-7.52,5.67-17.88,8.7-27.65,8.7c-21.5,0-37.33-14.76-37.33-35.38
				c0-20.62,15.83-35.37,37.62-35.37c12.02,0,21.99,4.1,28.63,11.82l-10.16,9.38c-4.98-5.28-10.75-7.72-17.69-7.72
				c-13.29,0-22.38,8.89-22.38,21.89c0,12.8,9.09,21.89,22.18,21.89c4.3,0,8.31-0.78,12.31-2.93V458.45z"/>
			<path class="st1" d="M586.82,425.32h31.07c22.38,0,37.72,13.49,37.72,34.2c0,20.72-15.34,34.2-37.72,34.2h-31.07V425.32z
				 M617.11,480.73c13.58,0,22.48-8.11,22.48-21.21s-8.89-21.2-22.48-21.2h-14.46v42.41H617.11z"/>
		</g>
		<g>
			<polygon class="st1" points="548.8,425.76 524.93,426.18 515.43,461.37 527.1,461.17 517.56,494.03 547.98,453.02 538.12,453.19 
							"/>
			<polygon class="st1" points="552.7,425.69 576.82,425.27 575.15,438.62 549.03,439.08 			"/>
			<polygon class="st1" points="558,452.41 547.5,465.4 569.52,465.36 569.6,452.64 			"/>
			<polygon class="st1" points="544.46,469.78 524.84,493.73 567.75,493.73 567.75,481.06 541.23,480.97 			"/>
		</g>
	</g>
</g>
</svg>
